# xmcd
#
# Track frame offsets:
#	150
#	31419
#	50474
#	62982
#	84786
#	106107
#	127577
#	141244
#	154128
#	177554
#	206914
#	218035
#	235826
#	253016
#	276708
#	298760
#	329848
#
# Disc length: 4664 seconds
#
# Revision: 0
# Processed by: cddbd v1.4PL0 Copyright (c) Steve Scherf et al.
# Submitted via: dBpowerAMP V4.0
#
DISCID=09123611
DTITLE=Dutch Tilders - Blue Ink
DYEAR=2003
DGENRE=Blues
TTITLE0=In The Evening
TTITLE1=Smokin'  Woman
TTITLE2=Them That Got
TTITLE3=Folksongs
TTITLE4=Trouble In Mind
TTITLE5=Highg Heel Sneakers
TTITLE6=Railroad Bill
TTITLE7=Corina Corina
TTITLE8=Back To The City
TTITLE9=Oowee Baby
TTITLE10=Keep Your Hands Off Her
TTITLE11=St James Infirmary
TTITLE12=Willie MAe
TTITLE13=Someone To Love
TTITLE14=Flip  Flop Fly
TTITLE15=Wee Wee Hours
TTITLE16=When Your Down And Out
EXTD=submitted by TonyB
EXTT0=
EXTT1=
EXTT2=
EXTT3=
EXTT4=
EXTT5=
EXTT6=
EXTT7=
EXTT8=
EXTT9=
EXTT10=
EXTT11=
EXTT12=
EXTT13=
EXTT14=
EXTT15=
EXTT16=
PLAYORDER=
